<svg xmlns="http://www.w3.org/2000/svg" enable-background="new 0 0 64 64" viewBox="0 0 64 64"><path d="M19,15c-0.552,0-1,0.448-1,1v30c0,0.552,0.448,1,1,1h26c2.206,0,4-1.794,4-4V29c0-0.552-0.448-1-1-1h-5V16
	c0-0.552-0.448-1-1-1H19z M20,45V17h21v26c0,0.732,0.212,1.409,0.556,2H20z M43,30h4v13c0,1.103-0.897,2-2,2s-2-0.897-2-2V30z"/><path d="M23,27h6c0.552,0,1-0.448,1-1v-6c0-0.552-0.448-1-1-1h-6c-0.552,0-1,0.448-1,1v6C22,26.552,22.448,27,23,27z M24,21h4v4h-4
	V21z"/><rect width="7" height="2" x="32" y="20"/><rect width="7" height="2" x="32" y="25"/><rect width="17" height="2" x="22" y="35"/><rect width="6" height="2" x="22" y="40"/><rect width="9" height="2" x="30" y="40"/><rect width="17" height="2" x="22" y="30"/><path d="M6.421 41.946c-.312-.918-.576-1.865-.785-2.814l-1.953.432c.226 1.02.509 2.037.844 3.024L6.421 41.946zM57.595 41.896l1.896.639c.333-.987.615-2.006.838-3.027l-1.954-.428C58.167 40.03 57.905 40.978 57.595 41.896zM3.173 36.468l1.988-.218C5.056 35.289 5.002 34.307 5 33.332l-2 .004C3.002 34.382 3.061 35.436 3.173 36.468zM61 33.278v-.113h-2v.113c0 .975-.052 1.957-.156 2.918l1.988.214C60.944 35.378 61 34.324 61 33.278zM5.613 27.528l-1.954-.424c-.221 1.018-.389 2.061-.498 3.099l1.989.21C5.252 29.446 5.408 28.476 5.613 27.528zM58.352 27.369c.211.945.373 1.915.481 2.882l1.987-.222c-.116-1.039-.29-2.081-.516-3.096L58.352 27.369zM5.647 21.157c-.437.947-.825 1.929-1.156 2.919l1.896.634c.308-.921.67-1.835 1.076-2.716L5.647 21.157zM56.469 21.848c.412.881.779 1.792 1.092 2.709l1.893-.646c-.336-.985-.73-1.965-1.173-2.911L56.469 21.848zM24.702 5.998l-.54-1.926c-1.005.282-2.005.622-2.972 1.011l.746 1.855C22.835 6.576 23.766 6.26 24.702 5.998zM42.65 5.018c-.97-.383-1.972-.717-2.979-.993l-.528 1.929c.938.257 1.87.568 2.772.924L42.65 5.018zM30.457 5.044l-.113-1.997c-1.044.059-2.093.175-3.118.345l.327 1.973C28.506 5.207 29.483 5.099 30.457 5.044zM36.602 3.362c-1.029-.164-2.079-.273-3.121-.325L33.38 5.034c.97.049 1.948.151 2.907.304L36.602 3.362zM39.138 57.978l.54 1.926c1.005-.282 2.005-.622 2.972-1.011l-.746-1.855C41.004 57.399 40.073 57.715 39.138 57.978zM21.925 57.097l-.735 1.86c.97.383 1.972.717 2.979.993l.528-1.929C23.76 57.764 22.827 57.453 21.925 57.097zM36.287 58.61c-.954.158-1.931.266-2.904.321l.113 1.997c1.044-.059 2.093-.175 3.118-.345L36.287 58.61zM27.552 58.637l-.314 1.976c1.029.164 2.079.273 3.121.325l.101-1.997C29.489 58.892 28.511 58.79 27.552 58.637zM54 1c-4.962 0-9 4.038-9 9s4.038 9 9 9 9-4.038 9-9S58.962 1 54 1zM58 15.736C56.865 16.53 55.487 17 54 17s-2.865-.47-4-1.264V15c0-1.654 1.346-3 3-3h2c1.654 0 3 1.346 3 3V15.736zM52 8c0-1.103.897-2 2-2s2 .897 2 2-.897 2-2 2S52 9.103 52 8zM59.849 13.835c-.358-1.489-1.38-2.714-2.739-3.352C57.658 9.799 58 8.943 58 8c0-2.206-1.794-4-4-4s-4 1.794-4 4c0 .943.342 1.799.89 2.484-1.359.638-2.38 1.862-2.739 3.352C47.426 12.733 47 11.416 47 10c0-3.86 3.14-7 7-7s7 3.14 7 7C61 11.416 60.574 12.733 59.849 13.835zM10 19c4.962 0 9-4.038 9-9s-4.038-9-9-9-9 4.038-9 9S5.038 19 10 19zM14 15.736C12.865 16.53 11.487 17 10 17s-2.865-.47-4-1.264V15c0-1.654 1.346-3 3-3h2c1.654 0 3 1.346 3 3V15.736zM8 8c0-1.103.897-2 2-2s2 .897 2 2-.897 2-2 2S8 9.103 8 8zM10 3c3.86 0 7 3.14 7 7 0 1.416-.426 2.733-1.151 3.835-.358-1.489-1.38-2.714-2.739-3.352C13.658 9.799 14 8.943 14 8c0-2.206-1.794-4-4-4S6 5.794 6 8c0 .943.342 1.799.89 2.484-1.359.638-2.38 1.862-2.739 3.352C3.426 12.733 3 11.416 3 10 3 6.14 6.14 3 10 3zM54 45c-4.962 0-9 4.038-9 9s4.038 9 9 9 9-4.038 9-9S58.962 45 54 45zM58 59.736C56.865 60.53 55.487 61 54 61s-2.865-.47-4-1.264V59c0-1.654 1.346-3 3-3h2c1.654 0 3 1.346 3 3V59.736zM52 52c0-1.103.897-2 2-2s2 .897 2 2-.897 2-2 2S52 53.103 52 52zM59.849 57.835c-.358-1.489-1.38-2.714-2.739-3.352C57.658 53.799 58 52.943 58 52c0-2.206-1.794-4-4-4s-4 1.794-4 4c0 .943.342 1.799.89 2.484-1.359.638-2.38 1.862-2.739 3.352C47.426 56.733 47 55.416 47 54c0-3.86 3.14-7 7-7s7 3.14 7 7C61 55.416 60.574 56.733 59.849 57.835zM10 63c4.962 0 9-4.038 9-9s-4.038-9-9-9-9 4.038-9 9S5.038 63 10 63zM14 59.736C12.865 60.53 11.487 61 10 61s-2.865-.47-4-1.264V59c0-1.654 1.346-3 3-3h2c1.654 0 3 1.346 3 3V59.736zM8 52c0-1.103.897-2 2-2s2 .897 2 2-.897 2-2 2S8 53.103 8 52zM10 47c3.86 0 7 3.14 7 7 0 1.416-.426 2.733-1.151 3.835-.358-1.489-1.38-2.714-2.739-3.352C13.658 53.799 14 52.943 14 52c0-2.206-1.794-4-4-4s-4 1.794-4 4c0 .943.342 1.799.89 2.484-1.359.638-2.38 1.862-2.739 3.352C3.426 56.733 3 55.416 3 54 3 50.14 6.14 47 10 47z"/></svg>