<svg xmlns="http://www.w3.org/2000/svg" xmlns:xlink="http://www.w3.org/1999/xlink" width="500" zoomAndPan="magnify" viewBox="0 0 375 374.999991" height="500" preserveAspectRatio="xMidYMid meet" version="1.0"><defs><filter x="0%" y="0%" width="100%" height="100%" id="id1"><feColorMatrix values="0 0 0 0 1 0 0 0 0 1 0 0 0 0 1 0 0 0 1 0" color-interpolation-filters="sRGB"/></filter><g/><mask id="id2"><g filter="url(#id1)"><rect x="-37.5" width="450" fill="#000000" y="-37.499999" height="449.999989" fill-opacity="0.349"/></g></mask><clipPath id="id3"><path d="M 0.238281 1 L 157.679688 1 L 157.679688 72.441406 L 0.238281 72.441406 Z M 0.238281 1 " clip-rule="nonzero"/></clipPath><clipPath id="id4"><rect x="0" width="158" y="0" height="73"/></clipPath></defs><g mask="url(#id2)"><g transform="matrix(1, 0, 0, 1, 108, 151)"><g clip-path="url(#id4)"><path fill="#5ce1e6" d="M 79.257812 59.171875 C 91.664062 59.171875 101.71875 49.066406 101.71875 36.605469 C 101.71875 24.144531 91.664062 14.039062 79.257812 14.039062 C 66.855469 14.039062 56.796875 24.144531 56.796875 36.605469 C 56.8125 49.0625 66.859375 59.15625 79.257812 59.171875 Z M 79.257812 17.894531 C 89.546875 17.894531 97.882812 26.269531 97.882812 36.605469 C 97.882812 46.9375 89.546875 55.316406 79.257812 55.316406 C 68.972656 55.316406 60.636719 46.9375 60.636719 36.605469 C 60.648438 26.277344 68.980469 17.90625 79.257812 17.894531 Z M 79.257812 17.894531 " fill-opacity="1" fill-rule="nonzero"/><g clip-path="url(#id3)"><path fill="#5ce1e6" d="M 17.726562 34.679688 C 16.746094 30.269531 12.621094 27.304688 8.152344 27.796875 C 3.683594 28.292969 0.296875 32.085938 0.296875 36.605469 C 0.296875 41.121094 3.683594 44.917969 8.152344 45.414062 C 12.621094 45.90625 16.746094 42.945312 17.726562 38.53125 L 30.152344 38.53125 C 32.546875 41.589844 35.121094 44.5 37.863281 47.242188 L 34.890625 47.242188 C 29.949219 47.25 25.945312 51.269531 25.941406 56.234375 C 25.9375 59.066406 23.652344 61.363281 20.828125 61.367188 L 19.273438 61.367188 C 18.292969 56.949219 14.164062 53.980469 9.6875 54.472656 C 5.207031 54.96875 1.820312 58.769531 1.820312 63.292969 C 1.820312 67.820312 5.207031 71.621094 9.6875 72.117188 C 14.164062 72.609375 18.292969 69.640625 19.273438 65.222656 L 20.828125 65.222656 C 25.769531 65.21875 29.773438 61.195312 29.777344 56.234375 C 29.78125 53.398438 32.066406 51.101562 34.890625 51.097656 L 41.910156 51.097656 C 42.574219 51.699219 43.261719 52.300781 43.972656 52.90625 C 55.726562 62.910156 67.929688 68.195312 79.261719 68.195312 C 90.59375 68.195312 102.800781 62.910156 114.550781 52.90625 C 115.261719 52.300781 115.953125 51.699219 116.613281 51.097656 L 123.007812 51.097656 C 125.828125 51.101562 128.117188 53.398438 128.117188 56.234375 C 128.125 61.195312 132.125 65.21875 137.066406 65.222656 L 138.621094 65.222656 C 139.601562 69.640625 143.730469 72.609375 148.210938 72.117188 C 152.6875 71.621094 156.078125 67.820312 156.078125 63.292969 C 156.078125 58.769531 152.6875 54.96875 148.210938 54.472656 C 143.730469 53.980469 139.601562 56.949219 138.621094 61.367188 L 137.066406 61.367188 C 134.246094 61.363281 131.957031 59.066406 131.957031 56.234375 C 131.949219 51.269531 127.945312 47.25 123.007812 47.242188 L 120.660156 47.242188 C 123.402344 44.5 125.976562 41.589844 128.367188 38.53125 L 140.167969 38.53125 C 141.144531 42.945312 145.269531 45.90625 149.738281 45.414062 C 154.210938 44.917969 157.59375 41.121094 157.59375 36.605469 C 157.59375 32.085938 154.210938 28.292969 149.738281 27.796875 C 145.269531 27.304688 141.144531 30.269531 140.167969 34.679688 L 128.367188 34.679688 C 125.976562 31.621094 123.402344 28.710938 120.65625 25.96875 L 123.003906 25.96875 C 127.945312 25.960938 131.945312 21.941406 131.953125 16.980469 C 131.957031 14.144531 134.242188 11.847656 137.066406 11.84375 L 138.621094 11.84375 C 139.601562 16.261719 143.730469 19.230469 148.207031 18.738281 C 152.6875 18.242188 156.078125 14.441406 156.078125 9.917969 C 156.078125 5.390625 152.6875 1.589844 148.207031 1.09375 C 143.730469 0.601562 139.601562 3.570312 138.621094 7.988281 L 137.066406 7.988281 C 132.125 7.992188 128.121094 12.015625 128.117188 16.980469 C 128.113281 19.8125 125.828125 22.113281 123.003906 22.113281 L 116.613281 22.113281 C 115.949219 21.515625 115.257812 20.910156 114.550781 20.304688 C 102.796875 10.304688 90.59375 5.015625 79.257812 5.015625 C 67.925781 5.015625 55.722656 10.304688 43.96875 20.304688 C 43.164062 20.992188 42.386719 21.675781 41.640625 22.355469 L 41.640625 22.117188 L 34.886719 22.117188 C 32.066406 22.113281 29.777344 19.8125 29.777344 16.980469 C 29.769531 12.015625 25.765625 7.992188 20.828125 7.988281 L 19.269531 7.988281 C 18.292969 3.570312 14.164062 0.601562 9.683594 1.09375 C 5.207031 1.589844 1.816406 5.390625 1.816406 9.917969 C 1.816406 14.441406 5.207031 18.242188 9.683594 18.738281 C 14.164062 19.230469 18.292969 16.261719 19.269531 11.84375 L 20.828125 11.84375 C 23.648438 11.847656 25.933594 14.144531 25.9375 16.980469 C 25.945312 21.941406 29.949219 25.964844 34.886719 25.96875 L 37.859375 25.96875 C 35.117188 28.710938 32.542969 31.621094 30.152344 34.679688 Z M 12.640625 40.144531 C 10.957031 41.832031 8.324219 42.09375 6.347656 40.765625 C 4.371094 39.441406 3.605469 36.894531 4.511719 34.691406 C 5.421875 32.484375 7.757812 31.230469 10.089844 31.695312 C 12.421875 32.160156 14.101562 34.21875 14.101562 36.605469 C 14.097656 37.933594 13.574219 39.207031 12.640625 40.144531 Z M 14.191406 66.835938 C 12.246094 68.789062 9.089844 68.789062 7.148438 66.832031 C 5.203125 64.878906 5.203125 61.710938 7.148438 59.757812 C 9.089844 57.804688 12.246094 57.800781 14.191406 59.753906 C 16.132812 61.710938 16.132812 64.878906 14.191406 66.835938 Z M 143.703125 59.753906 C 145.648438 57.800781 148.804688 57.800781 150.75 59.753906 C 152.695312 61.710938 152.695312 64.882812 150.75 66.835938 C 148.804688 68.789062 145.648438 68.789062 143.703125 66.835938 C 141.757812 64.878906 141.757812 61.710938 143.703125 59.753906 Z M 145.253906 33.0625 C 146.933594 31.375 149.566406 31.113281 151.542969 32.441406 C 153.519531 33.769531 154.289062 36.316406 153.378906 38.523438 C 152.46875 40.726562 150.132812 41.980469 147.804688 41.515625 C 145.472656 41.050781 143.792969 38.992188 143.792969 36.605469 C 143.792969 35.277344 144.316406 34.003906 145.253906 33.0625 Z M 143.703125 6.375 C 145.648438 4.417969 148.804688 4.417969 150.75 6.375 C 152.695312 8.328125 152.695312 11.5 150.75 13.457031 C 148.804688 15.410156 145.648438 15.410156 143.703125 13.457031 C 141.757812 11.5 141.757812 8.332031 143.703125 6.375 Z M 14.191406 13.457031 C 12.246094 15.40625 9.089844 15.40625 7.148438 13.453125 C 5.203125 11.5 5.203125 8.332031 7.148438 6.375 C 9.089844 4.421875 12.246094 4.421875 14.191406 6.375 C 16.132812 8.332031 16.132812 11.5 14.191406 13.457031 Z M 79.257812 8.871094 C 101.644531 8.871094 120.742188 31.253906 124.988281 36.605469 C 120.746094 41.960938 101.671875 64.339844 79.257812 64.339844 C 56.875 64.339844 37.773438 41.953125 33.53125 36.605469 C 37.769531 31.25 56.847656 8.871094 79.257812 8.871094 Z M 79.257812 8.871094 " fill-opacity="1" fill-rule="nonzero"/></g></g></g></g><g fill="#000000" fill-opacity="1"><g transform="translate(187.499992, 201.753517)"><g/></g></g><g fill="#020074" fill-opacity="1"><g transform="translate(130.139146, 199.128517)"><g><path d="M 18.894531 0 L 18.894531 -3.300781 C 16.644531 -3.300781 14.726562 -7.859375 13.195312 -11.15625 C 10.976562 -16.316406 8.757812 -20.996094 4.5 -20.996094 L 4.5 -17.695312 C 6.75 -17.695312 8.667969 -13.226562 10.167969 -9.898438 C 12.355469 -4.980469 14.546875 0 18.894531 0 Z M 18.894531 -3.300781 L 22.195312 -3.300781 L 22.195312 -20.996094 L 18.894531 -20.996094 Z M 1.199219 0 L 4.5 0 L 4.5 -17.695312 L 1.199219 -17.695312 Z M 1.199219 0 "/></g></g></g><g fill="#020074" fill-opacity="1"><g transform="translate(153.530056, 199.128517)"><g><path d="M 4.5 -17.695312 L 22.195312 -17.695312 L 22.195312 -20.996094 L 4.5 -20.996094 Z M 6.597656 0 L 22.195312 0 L 22.195312 -3.300781 L 6.597656 -3.300781 C 5.457031 -3.300781 4.5 -4.230469 4.5 -5.398438 L 4.5 -17.695312 L 1.199219 -17.695312 L 1.199219 -5.398438 C 1.199219 -2.398438 3.597656 0 6.597656 0 Z M 6.566406 -8.847656 L 20.09375 -8.847656 L 20.09375 -12.148438 L 6.566406 -12.148438 Z M 6.566406 -8.847656 "/></g></g></g><g fill="#020074" fill-opacity="1"><g transform="translate(176.920965, 199.128517)"><g><path d="M 1.199219 0 L 4.5 0 L 4.5 -5.699219 C 4.5 -6.867188 5.429688 -8.246094 7.046875 -8.246094 L 10.617188 -8.246094 L 10.617188 -11.546875 L 7.5 -11.546875 C 5.429688 -11.546875 4.5 -12.925781 4.5 -14.996094 L 4.5 -20.996094 L 1.199219 -20.996094 L 1.199219 -14.996094 C 1.199219 -12.476562 1.828125 -11.007812 3.71875 -9.898438 C 1.828125 -8.789062 1.199219 -7.316406 1.199219 -5.699219 Z M 18.894531 0 L 22.195312 0 L 22.195312 -5.699219 C 22.195312 -7.316406 21.566406 -8.789062 19.675781 -9.898438 C 21.566406 -11.007812 22.195312 -12.476562 22.195312 -14.996094 L 22.195312 -20.996094 L 18.894531 -20.996094 L 18.894531 -14.996094 C 18.894531 -12.925781 17.964844 -11.546875 15.894531 -11.546875 L 12.746094 -11.546875 L 12.746094 -8.246094 L 16.347656 -8.246094 C 17.964844 -8.246094 18.894531 -6.867188 18.894531 -5.699219 Z M 18.894531 0 "/></g></g></g><g fill="#020074" fill-opacity="1"><g transform="translate(200.311874, 199.128517)"><g><path d="M 6.597656 0 L 18.894531 0 L 18.894531 -3.300781 L 6.597656 -3.300781 C 5.429688 -3.300781 4.5 -4.230469 4.5 -5.398438 L 4.5 -20.996094 L 1.199219 -20.996094 L 1.199219 -5.398438 C 1.199219 -2.371094 3.570312 0 6.597656 0 Z M 18.894531 -3.300781 L 22.195312 -3.300781 L 22.195312 -20.996094 L 18.894531 -20.996094 Z M 18.894531 -3.300781 "/></g></g></g><g fill="#020074" fill-opacity="1"><g transform="translate(223.702783, 199.128517)"><g><path d="M 18.894531 -14.695312 L 22.195312 -14.695312 C 22.195312 -18.324219 19.976562 -20.996094 16.796875 -20.996094 L 4.5 -20.996094 L 4.5 -17.695312 L 16.496094 -17.695312 C 17.964844 -17.695312 18.894531 -16.316406 18.894531 -14.695312 Z M 18.894531 -3.300781 L 22.195312 -3.300781 L 22.195312 -6.75 C 22.195312 -9.925781 19.976562 -12.148438 16.796875 -12.148438 L 6.597656 -12.148438 C 5.457031 -12.148438 4.5 -13.078125 4.5 -14.246094 L 4.5 -17.695312 L 1.199219 -17.695312 L 1.199219 -14.246094 C 1.199219 -11.097656 3.449219 -8.847656 6.597656 -8.847656 L 16.796875 -8.847656 C 17.964844 -8.847656 18.894531 -7.917969 18.894531 -6.75 Z M 6.597656 0 L 18.894531 0 L 18.894531 -3.300781 L 6.898438 -3.300781 C 5.457031 -3.300781 4.5 -4.679688 4.5 -6.296875 L 1.199219 -6.296875 C 1.199219 -2.699219 3.449219 0 6.597656 0 Z M 6.597656 0 "/></g></g></g></svg>